<?xml version="1.0" standalone="no"?>
<!DOCTYPE svg PUBLIC "-//W3C//DTD SVG 20010904//EN"
 "http://www.w3.org/TR/2001/REC-SVG-20010904/DTD/svg10.dtd">
<svg version="1.0" xmlns="http://www.w3.org/2000/svg"
 width="512.000000pt" height="512.000000pt" viewBox="0 0 512.000000 512.000000"
 preserveAspectRatio="xMidYMid meet">

<g transform="translate(0.000000,512.000000) scale(0.100000,-0.100000)"
fill="#000000" stroke="none">
<path d="M0 2560 l0 -2560 2560 0 2560 0 0 2560 0 2560 -2560 0 -2560 0 0
-2560z m2560 2080 c0 -5 -4 -10 -10 -10 -5 0 -10 5 -10 10 0 6 5 10 10 10 6 0
10 -4 10 -10z m99 -68 c64 -50 81 -99 82 -237 0 -66 -2 -127 -6 -136 -5 -14 3
-18 47 -24 244 -32 496 -127 691 -261 43 -30 79 -54 81 -54 1 0 10 15 20 34
28 52 107 102 189 120 115 26 275 -75 307 -194 l11 -40 53 0 c67 0 113 -29
141 -87 20 -42 20 -42 76 -43 106 0 175 -79 167 -190 -6 -78 -41 -131 -110
-166 -44 -22 -61 -26 -120 -22 -64 3 -68 3 -62 -17 4 -16 3 -17 -5 -5 -9 12
-14 13 -31 3 -27 -17 -91 -16 -155 3 -52 15 -55 14 -89 -8 -20 -13 -36 -27
-36 -32 0 -5 7 -3 15 4 8 6 20 8 26 4 7 -4 9 -3 5 4 -3 6 3 14 16 18 14 4 24
2 26 -5 3 -8 8 -9 16 -1 28 22 122 -242 151 -420 20 -125 19 -153 -5 -192 -25
-42 -25 -74 0 -121 25 -46 25 -95 0 -240 -25 -150 -69 -286 -137 -424 l-55
-112 26 -34 c14 -19 31 -48 37 -65 9 -26 16 -32 41 -32 19 0 40 -10 59 -29 28
-29 30 -29 64 -15 49 20 151 18 200 -5 134 -63 196 -237 136 -377 -28 -63
-100 -136 -166 -165 -72 -32 -184 -36 -308 -11 l-99 21 -42 -33 c-110 -84
-252 -81 -361 8 -40 33 -41 33 -70 18 -24 -13 -67 -17 -199 -19 -100 -1 -177
2 -188 8 -14 8 -39 4 -96 -15 -83 -27 -219 -54 -294 -58 -32 -1 -53 3 -65 14
-47 43 -118 46 -168 6 -24 -18 -35 -20 -97 -14 -134 12 -329 64 -445 118 -40
19 -59 42 -30 37 18 -3 87 12 92 21 2 4 -14 4 -38 0 -56 -10 -274 4 -313 20
-28 12 -34 11 -65 -12 -59 -45 -99 -60 -174 -65 -86 -7 -154 12 -218 61 l-42
32 -45 -18 c-55 -21 -146 -22 -180 -3 -14 8 -49 14 -78 15 -150 1 -253 153
-193 286 24 53 66 92 114 105 22 6 37 16 37 25 0 29 40 93 74 119 23 18 33 32
29 43 -4 13 -3 14 5 4 6 -9 35 -14 87 -15 l77 -2 18 45 c17 45 17 45 -12 103
-65 130 -128 365 -144 535 -6 67 -5 75 15 93 24 23 41 60 40 87 0 9 -7 -2 -16
-26 -39 -110 -193 -88 -193 28 0 33 6 48 29 71 39 38 87 39 133 2 l33 -27 -24
27 -24 26 17 116 c21 149 73 328 131 451 25 53 45 100 45 103 0 4 -16 13 -37
20 -20 7 -54 30 -77 50 -48 44 -70 47 -137 21 -124 -49 -239 -31 -319 50 -51
50 -70 100 -70 179 0 126 91 221 213 221 48 0 56 3 75 30 31 42 67 63 110 65
32 1 37 4 43 30 26 127 146 219 284 218 129 0 231 -70 280 -189 l24 -59 44 3
c28 2 57 -3 77 -13 32 -16 32 -16 143 38 180 89 362 145 557 171 l45 6 -4 127
c-2 76 1 141 8 164 37 123 185 177 280 101z m419 -28 c4 -27 -22 -38 -42 -18
-8 8 -13 21 -9 30 8 22 47 13 51 -12z m-1363 -104 c0 -34 -50 -42 -60 -11 -9
29 3 43 33 39 21 -2 27 -8 27 -28z m1108 -17 c-7 -2 -19 -2 -25 0 -7 3 -2 5
12 5 14 0 19 -2 13 -5z m572 -3 c3 -6 -1 -7 -9 -4 -18 7 -21 14 -7 14 6 0 13
-4 16 -10z m-1162 -7 c-7 -2 -19 -2 -25 0 -7 3 -2 5 12 5 14 0 19 -2 13 -5z
m650 0 c-7 -2 -19 -2 -25 0 -7 3 -2 5 12 5 14 0 19 -2 13 -5z m-716 -9 c-3 -3
-12 -4 -19 -1 -8 3 -5 6 6 6 11 1 17 -2 13 -5z m790 0 c-3 -3 -12 -4 -19 -1
-8 3 -5 6 6 6 11 1 17 -2 13 -5z m-840 -10 c-3 -3 -12 -4 -19 -1 -8 3 -5 6 6
6 11 1 17 -2 13 -5z m886 -1 c-7 -2 -19 -2 -25 0 -7 3 -2 5 12 5 14 0 19 -2
13 -5z m-936 -9 c-3 -3 -12 -4 -19 -1 -8 3 -5 6 6 6 11 1 17 -2 13 -5z m980 0
c-3 -3 -12 -4 -19 -1 -8 3 -5 6 6 6 11 1 17 -2 13 -5z m-1032 -14 c-11 -5 -27
-9 -35 -9 -9 0 -8 4 5 9 11 5 27 9 35 9 9 0 8 -4 -5 -9z m1090 0 c13 -5 14 -9
5 -9 -8 0 -24 4 -35 9 -13 5 -14 9 -5 9 8 0 24 -4 35 -9z m900 -26 c-22 -8
-50 -26 -62 -40 -24 -27 -31 -21 -9 8 17 23 66 48 91 47 12 0 3 -6 -20 -15z
m-2495 1 c0 -2 -10 -9 -22 -15 -22 -11 -22 -10 -4 4 21 17 26 19 26 11z m345
-25 c-44 -16 -81 -27 -83 -25 -2 2 21 12 50 23 29 10 60 22 68 25 8 3 22 6 30
6 8 0 -21 -13 -65 -29z m2222 24 c-3 -3 -12 -4 -19 -1 -8 3 -5 6 6 6 11 1 17
-2 13 -5z m-827 -24 c8 -5 11 -10 5 -10 -5 0 -17 5 -25 10 -8 5 -10 10 -5 10
6 0 17 -5 25 -10z m-1830 -24 c0 -2 -12 -11 -27 -20 l-28 -17 24 20 c23 21 31
25 31 17z m1900 -6 c8 -5 11 -10 5 -10 -5 0 -17 5 -25 10 -8 5 -10 10 -5 10 6
0 17 -5 25 -10z m755 -15 c26 -25 30 -49 19 -104 -6 -30 -7 -31 -65 -31 l-59
0 0 64 c0 56 3 67 22 80 32 22 55 20 83 -9z m-2325 5 c-8 -5 -19 -10 -25 -10
-5 0 -3 5 5 10 8 5 20 10 25 10 6 0 3 -5 -5 -10z m1615 -10 c3 -6 -1 -7 -9 -4
-18 7 -21 14 -7 14 6 0 13 -4 16 -10z m-1656 -3 c-14 -12 -202 -108 -194 -99
12 13 176 102 189 102 5 0 7 -2 5 -3z m2208 -34 c-3 -10 -5 -4 -5 12 0 17 2
24 5 18 2 -7 2 -21 0 -30z m-501 11 c18 -14 18 -14 -6 -3 -31 14 -36 19 -24
19 6 0 19 -7 30 -16z m104 -60 c0 -2 -13 2 -30 11 -16 9 -30 18 -30 21 0 2 14
-2 30 -11 17 -9 30 -18 30 -21z m-1836 10 c9 -8 16 -22 16 -29 0 -20 -28 -45
-50 -45 -23 0 -50 26 -50 49 0 39 54 55 84 25z m1886 -40 c0 -2 -9 0 -20 6
-11 6 -20 13 -20 16 0 2 9 0 20 -6 11 -6 20 -13 20 -16z m61 -41 c13 -16 12
-17 -3 -4 -17 13 -22 21 -14 21 2 0 10 -8 17 -17z m-121 -129 c0 -2 -9 0 -20
6 -11 6 -20 13 -20 16 0 2 9 0 20 -6 11 -6 20 -13 20 -16z m-2597 -609 c-9
-19 -18 -33 -21 -31 -4 5 26 66 33 66 3 0 -3 -16 -12 -35z m3762 -110 c15 -14
25 -36 25 -53 0 -18 6 -32 15 -36 13 -5 15 -21 13 -88 l-3 -83 -101 -3 -101
-3 -7 47 c-10 76 -7 104 14 131 11 14 20 35 20 46 0 31 39 67 72 67 17 0 39
-10 53 -25z m-362 -230 l6 -40 -13 35 c-17 46 -56 56 -56 13 0 -24 -4 -28 -27
-28 -32 -1 -39 7 -53 57 -9 32 -8 40 11 62 l22 25 19 -24 c11 -14 26 -25 35
-25 15 0 15 16 -1 65 -4 11 6 -7 22 -40 16 -33 32 -78 35 -100z m-3836 -27
c-3 -7 -5 -2 -5 12 0 14 2 19 5 13 2 -7 2 -19 0 -25z m290 -40 c-3 -8 -6 -5
-6 6 -1 11 2 17 5 13 3 -3 4 -12 1 -19z m3570 -30 c-3 -8 -6 -5 -6 6 -1 11 2
17 5 13 3 -3 4 -12 1 -19z m10 -50 c-3 -8 -6 -5 -6 6 -1 11 2 17 5 13 3 -3 4
-12 1 -19z m10 -50 c-3 -7 -5 -2 -5 12 0 14 2 19 5 13 2 -7 2 -19 0 -25z m10
-50 c-3 -8 -6 -5 -6 6 -1 11 2 17 5 13 3 -3 4 -12 1 -19z m10 -85 c-3 -10 -5
-4 -5 12 0 17 2 24 5 18 2 -7 2 -21 0 -30z m-3786 -2 c18 -19 29 -40 29 -58 0
-18 8 -33 20 -41 19 -11 20 -21 18 -110 l-3 -97 -119 -3 c-89 -2 -121 1 -128
10 -4 7 -8 52 -8 100 0 77 2 89 20 100 12 8 20 24 20 40 0 14 12 40 26 57 35
42 84 43 125 2z m3714 -62 c37 -32 46 -66 20 -75 -8 -4 -15 -15 -15 -25 0 -47
-88 -62 -132 -22 -27 25 -24 85 8 122 34 41 72 41 119 0z m310 -213 c13 -13
27 -40 31 -60 3 -21 15 -41 25 -47 18 -9 19 -20 17 -117 l-3 -107 -130 0 -130
0 -3 112 c-2 103 -1 112 17 118 12 3 21 19 26 41 9 50 45 84 90 84 25 0 43 -8
60 -24z m3 -515 c19 -11 11 -45 -11 -49 -19 -4 -32 20 -23 43 6 17 15 19 34 6z
m-3738 -126 c0 -5 -5 -3 -10 5 -5 8 -10 20 -10 25 0 6 5 3 10 -5 5 -8 10 -19
10 -25z m1725 -900 c20 -19 25 -34 25 -77 0 -75 -6 -80 -81 -76 l-64 3 -7 40
c-9 51 -2 87 23 114 27 29 73 27 104 -4z m1455 10 c0 -8 -9 -15 -20 -15 -20 0
-26 11 -13 23 12 13 33 7 33 -8z m-2975 -5 c3 -5 1 -10 -4 -10 -6 0 -11 5 -11
10 0 6 2 10 4 10 3 0 8 -4 11 -10z m1652 -86 c-3 -3 -12 -4 -19 -1 -8 3 -5 6
6 6 11 1 17 -2 13 -5z m-149 -306 c16 -16 -3 -48 -29 -48 -22 0 -34 22 -25 45
6 18 37 20 54 3z"/>
<path d="M2489 4535 c-47 -25 -59 -69 -59 -209 l0 -125 31 -36 c28 -32 36 -35
86 -35 59 0 106 19 123 49 5 11 10 81 10 157 l0 136 -39 39 c-33 34 -45 39
-82 39 -24 -1 -56 -7 -70 -15z m115 -64 c17 -19 25 -75 13 -88 -7 -6 -12 5
-21 49 -13 60 -96 39 -96 -24 0 -15 -4 -28 -10 -28 -19 0 -11 69 10 90 26 26
81 26 104 1z m0 -142 c23 -18 26 -27 26 -84 l0 -63 -62 -4 c-35 -2 -69 -2 -75
0 -9 3 -13 26 -13 67 0 57 3 66 26 84 15 12 37 21 49 21 12 0 34 -9 49 -21z"/>
<path d="M2524 4297 c-3 -9 -4 -28 -2 -44 3 -24 7 -28 33 -28 28 0 30 2 30 40
0 36 -3 40 -28 43 -17 2 -29 -2 -33 -11z"/>
<path d="M2400 4039 c-196 -20 -396 -77 -559 -158 -55 -28 -101 -52 -101 -54
0 -1 19 -2 43 -2 73 -1 129 -41 173 -123 0 -1 30 11 65 27 86 40 226 79 357
99 l107 17 32 95 c17 52 32 98 32 103 1 8 -33 7 -149 -4z m88 -66 c-10 -2 -28
-2 -40 0 -13 2 -5 4 17 4 22 1 32 -1 23 -4z m-111 -9 c-3 -3 -12 -4 -19 -1 -8
3 -5 6 6 6 11 1 17 -2 13 -5z m-84 -11 c-7 -2 -19 -2 -25 0 -7 3 -2 5 12 5 14
0 19 -2 13 -5z"/>
<path d="M2570 4043 c0 -4 14 -51 32 -104 l32 -97 65 -7 c148 -16 357 -84 484
-157 62 -36 114 -38 127 -4 11 31 76 96 95 96 24 0 17 14 -18 34 -170 100
-268 145 -391 181 -125 36 -426 77 -426 58z m263 -90 c-7 -2 -19 -2 -25 0 -7
3 -2 5 12 5 14 0 19 -2 13 -5z m44 -9 c-3 -3 -12 -4 -19 -1 -8 3 -5 6 6 6 11
1 17 -2 13 -5z m40 -10 c-3 -3 -12 -4 -19 -1 -8 3 -5 6 6 6 11 1 17 -2 13 -5z
m93 -24 c8 -5 11 -10 5 -10 -5 0 -17 5 -25 10 -8 5 -10 10 -5 10 6 0 17 -5 25
-10z"/>
<path d="M2395 3729 c-86 -11 -192 -40 -293 -79 -106 -41 -138 -62 -145 -96
-15 -78 -110 -158 -200 -169 -48 -7 -56 -12 -97 -61 -171 -206 -258 -416 -285
-688 l-5 -58 43 6 c24 4 55 9 68 11 13 2 66 11 118 19 52 9 95 17 97 19 2 2
10 37 18 78 27 140 80 260 158 356 58 72 60 59 2 -19 -82 -110 -154 -291 -154
-387 l0 -27 223 37 c122 21 228 38 235 39 6 0 12 4 12 10 0 13 -140 229 -268
414 -57 82 -94 143 -83 135 23 -16 151 -103 371 -253 126 -85 193 -134 153
-112 -20 11 -21 -17 -2 -71 11 -32 14 -55 8 -58 -5 -4 -6 -12 -3 -18 6 -11
-15 8 -216 198 -95 90 -95 89 -2 -14 37 -40 66 -77 65 -82 -2 -5 3 -8 10 -6 6
1 11 -4 10 -10 -2 -7 1 -12 5 -10 4 1 23 -16 42 -38 19 -22 30 -37 26 -33 -5
4 -15 1 -22 -7 -17 -16 -19 -29 -3 -20 6 4 10 1 8 -6 -3 -26 1 -38 18 -55 10
-9 18 -24 20 -33 1 -8 10 -21 19 -28 10 -7 14 -13 8 -13 -5 0 -1 -7 9 -14 15
-12 11 -14 -35 -20 -29 -3 -132 -6 -228 -6 -291 0 -705 -13 -685 -21 17 -6 16
-8 -7 -8 -16 -1 -28 4 -28 9 0 6 -4 10 -8 10 -16 0 27 -268 58 -361 36 -109
108 -250 151 -299 17 -19 43 -53 56 -75 45 -72 62 -85 110 -85 58 0 102 -20
140 -63 28 -33 53 -90 53 -124 0 -8 13 -13 30 -13 45 0 96 -24 133 -64 43 -46
126 -71 351 -104 47 -7 49 -8 68 -59 11 -29 24 -53 29 -53 12 0 13 -11 -23
222 l-31 208 -36 5 c-88 14 -181 40 -246 68 -75 33 -194 106 -216 134 -8 9 16
-4 52 -30 114 -81 247 -134 405 -161 29 -5 32 -2 36 24 2 16 1 27 -2 25 -8 -5
-23 86 -15 93 3 3 5 -2 5 -12 0 -32 30 -78 47 -71 9 3 20 0 25 -7 4 -7 8 127
8 299 0 171 3 314 8 316 4 3 21 8 39 12 32 6 32 6 76 -80 l43 -87 -72 -432
c-39 -237 -75 -453 -79 -480 -8 -61 7 -54 29 12 l16 48 110 17 c106 17 246 59
321 97 19 10 47 36 61 58 28 41 79 72 122 72 32 0 145 96 223 188 169 204 254
403 281 666 l8 78 -50 -5 c-28 -3 -73 -9 -101 -13 l-50 -7 19 22 19 21 -104 1
c-57 1 -113 3 -124 4 -11 1 -154 2 -317 3 l-296 2 -7 33 c-4 17 -14 41 -21 51
-12 18 -5 28 83 118 54 54 102 106 107 116 8 15 -170 -150 -201 -187 -11 -12
-16 -11 -38 3 -14 9 -25 22 -25 29 1 6 20 48 43 92 l42 80 165 112 c91 61 179
119 197 128 58 30 58 39 1 83 -114 87 -218 134 -350 160 -49 9 -88 20 -88 25
0 4 10 5 23 3 146 -30 188 -43 264 -80 49 -24 116 -66 150 -94 l61 -51 58 36
c51 33 55 38 39 47 -40 23 -109 93 -121 123 -18 43 -18 112 1 157 9 20 13 41
11 45 -9 14 -167 79 -258 105 -81 23 -283 55 -292 45 -2 -2 11 -98 30 -214 19
-115 32 -217 31 -225 -2 -8 -7 6 -11 33 -6 37 -11 47 -26 47 -10 0 -22 -10
-26 -22 -7 -21 -9 -20 -15 12 -3 19 -7 -117 -8 -302 0 -186 -2 -338 -4 -338
-1 0 -17 -4 -34 -9 l-32 -9 -50 90 -51 90 40 238 c22 130 40 243 40 250 0 9
-12 10 -47 5 -120 -18 -273 -84 -376 -162 -33 -24 -61 -42 -64 -39 -8 8 117
96 189 132 68 34 222 84 262 84 11 0 26 4 32 8 9 5 64 284 64 323 0 11 -38 10
-135 -2z m98 -96 c-7 -2 -19 -2 -25 0 -7 3 -2 5 12 5 14 0 19 -2 13 -5z m-65
-10 c-10 -2 -26 -2 -35 0 -10 3 -2 5 17 5 19 0 27 -2 18 -5z m299 1 c-3 -3
-12 -4 -19 -1 -8 3 -5 6 6 6 11 1 17 -2 13 -5z m-364 -11 c-7 -2 -19 -2 -25 0
-7 3 -2 5 12 5 14 0 19 -2 13 -5z m-56 -9 c-3 -3 -12 -4 -19 -1 -8 3 -5 6 6 6
11 1 17 -2 13 -5z m-607 -398 c0 -2 -8 -10 -17 -17 -16 -13 -17 -12 -4 4 13
16 21 21 21 13z m410 -40 c0 -2 -8 -10 -17 -17 -16 -13 -17 -12 -4 4 13 16 21
21 21 13z m-500 -96 c-11 -22 -23 -40 -25 -40 -3 0 4 18 15 40 11 22 23 40 25
40 3 0 -4 -18 -15 -40z m1200 -10 c0 -5 -4 -10 -10 -10 -5 0 -10 5 -10 10 0 6
5 10 10 10 6 0 10 -4 10 -10z m-465 -330 c10 -11 16 -20 13 -20 -3 0 -13 9
-23 20 -10 11 -16 20 -13 20 3 0 13 -9 23 -20z m289 -45 c92 -44 102 -215 13
-215 -14 0 -36 -4 -49 -9 -13 -5 -31 -12 -41 -15 -10 -3 -15 -11 -12 -16 5 -8
11 -7 21 1 10 8 14 8 14 0 0 -6 -12 -14 -27 -17 -36 -9 -109 30 -130 69 -20
40 -13 129 13 158 51 58 132 75 198 44z m-1157 -17 c-3 -8 -6 -5 -6 6 -1 11 2
17 5 13 3 -3 4 -12 1 -19z m2060 -164 c-3 -3 -12 -4 -19 -1 -8 3 -5 6 6 6 11
1 17 -2 13 -5z m-1137 -33 c10 -24 9 -34 -2 -49 -13 -19 -181 -200 -353 -382
-45 -47 -106 -111 -136 -143 -30 -33 -67 -69 -84 -80 l-30 -22 36 50 c50 69
166 243 276 415 l93 144 87 47 c49 25 91 47 94 48 4 0 12 -12 19 -28z m519
-75 c8 -6 72 -99 144 -206 71 -107 132 -197 134 -200 14 -15 126 173 155 260
12 36 27 92 34 125 8 40 12 50 13 30 3 -81 -69 -262 -145 -365 -24 -33 -44
-63 -44 -66 0 -3 25 -42 56 -85 30 -43 52 -79 48 -79 -6 0 -148 145 -515 525
l-97 100 16 32 15 33 86 -47 c47 -25 92 -51 100 -57z m488 52 c-3 -8 -6 -5 -6
6 -1 11 2 17 5 13 3 -3 4 -12 1 -19z m-1646 -174 c26 -78 52 -128 145 -274 9
-14 0 -7 -20 15 -74 81 -179 335 -175 424 1 14 5 4 10 -24 6 -27 23 -91 40
-141z m309 56 c0 -5 -5 -10 -11 -10 -5 0 -7 5 -4 10 3 6 8 10 11 10 2 0 4 -4
4 -10z m-374 -131 c10 -17 -13 -36 -27 -22 -12 12 -4 33 11 33 5 0 12 -5 16
-11z m265 -106 c13 -16 12 -17 -3 -4 -10 7 -18 15 -18 17 0 8 8 3 21 -13z
m1168 -199 c-22 -27 -157 -114 -216 -140 -86 -38 -270 -84 -258 -64 3 6 16 10
27 10 86 0 288 84 393 164 65 49 75 55 54 30z m-179 1 c0 -2 -10 -9 -22 -15
-22 -11 -22 -10 -4 4 21 17 26 19 26 11z m-1229 -22 c13 -16 12 -17 -3 -4 -10
7 -18 15 -18 17 0 8 8 3 21 -13z m1129 -33 c-8 -5 -19 -10 -25 -10 -5 0 -3 5
5 10 8 5 20 10 25 10 6 0 3 -5 -5 -10z m530 7 c0 -2 -10 -12 -22 -23 l-23 -19
19 23 c18 21 26 27 26 19z m-90 -90 c0 -2 -12 -14 -27 -28 l-28 -24 24 28 c23
25 31 32 31 24z m-60 -51 c0 -2 -8 -10 -17 -17 -16 -13 -17 -12 -4 4 13 16 21
21 21 13z"/>
<path d="M2562 3460 c0 -14 2 -19 5 -12 2 6 2 18 0 25 -3 6 -5 1 -5 -13z"/>
<path d="M1407 3380 c-21 -15 -57 -33 -81 -40 -43 -12 -44 -12 -104 -138 -113
-237 -146 -384 -146 -647 0 -208 20 -335 80 -507 52 -149 43 -140 111 -112 32
13 77 24 101 24 23 0 42 2 42 5 0 3 -11 27 -24 53 -42 83 -77 204 -98 337 -11
72 -22 135 -24 142 -1 7 -44 25 -93 40 -50 15 -91 30 -91 33 0 3 41 18 91 35
50 16 92 32 94 36 2 3 11 52 21 110 30 194 103 375 208 522 55 77 61 97 28 97
-9 0 -31 9 -48 19 l-30 19 -37 -28z"/>
<path d="M3540 3285 c-18 -10 -20 -14 -9 -21 8 -5 17 -9 22 -10 4 -1 8 -2 10
-4 1 -1 11 -3 21 -5 10 -2 23 -9 27 -17 4 -7 10 -10 13 -8 2 3 -10 21 -29 41
-29 32 -35 35 -55 24z"/>
<path d="M3375 3261 c-2 -2 -25 -4 -52 -6 l-47 -1 -80 -120 c-132 -195 -266
-402 -266 -412 0 -8 743 -143 788 -142 19 0 22 5 22 38 0 68 -30 225 -61 317
-29 85 -85 194 -149 288 -28 42 -29 42 -90 42 -34 0 -63 -2 -65 -4z m-127
-199 c80 -107 161 -305 149 -366 -4 -18 -4 -17 -6 5 -2 38 -46 171 -80 237
-16 31 -50 85 -75 120 -25 34 -43 62 -38 62 4 0 26 -26 50 -58z m-20 -167 c-3
-3 -9 2 -12 12 -6 14 -5 15 5 6 7 -7 10 -15 7 -18z m242 -55 c0 -5 -5 -10 -11
-10 -5 0 -7 5 -4 10 3 6 8 10 11 10 2 0 4 -4 4 -10z m-400 -56 c0 -16 -16 -19
-25 -4 -8 13 4 32 16 25 5 -4 9 -13 9 -21z m262 -76 c-9 -9 -15 -9 -24 0 -9 9
-7 12 12 12 19 0 21 -3 12 -12z m75 -60 c-3 -8 -6 -5 -6 6 -1 11 2 17 5 13 3
-3 4 -12 1 -19z"/>
<path d="M3640 3234 c0 -3 19 -41 43 -83 79 -139 121 -267 141 -424 l11 -89
90 -29 c50 -16 96 -29 104 -29 11 0 13 17 7 96 -3 52 -11 116 -17 142 -9 45
-11 47 -44 48 -42 1 -41 0 -49 44 -4 19 -3 30 1 23 6 -9 15 -7 33 7 l24 18
-18 59 c-10 32 -33 91 -52 131 -32 70 -34 72 -61 65 -46 -13 -126 -8 -171 10
-23 9 -42 14 -42 11z"/>
<path d="M840 2605 c-8 -10 -10 -30 -5 -61 6 -41 9 -45 28 -40 12 3 26 6 31 6
4 0 6 6 3 14 -3 7 1 23 9 35 30 42 -32 86 -66 46z"/>
<path d="M3940 2538 c-52 -18 -96 -33 -98 -34 -2 -1 -7 -44 -13 -95 -23 -227
-120 -465 -259 -637 -27 -34 -50 -64 -50 -67 0 -17 50 1 75 27 45 46 109 72
182 71 l62 0 49 101 c55 110 105 258 127 372 14 71 32 294 24 294 -2 0 -47
-15 -99 -32z"/>
<path d="M2552 1710 c0 -14 2 -19 5 -12 2 6 2 18 0 25 -3 6 -5 1 -5 -13z"/>
<path d="M2138 1272 c-10 -27 -35 -67 -57 -89 l-38 -40 66 -21 c36 -12 96 -28
133 -36 86 -20 295 -42 305 -32 4 3 -8 51 -25 105 l-33 99 -57 7 c-53 6 -212
37 -257 50 -17 5 -23 -2 -37 -43z"/>
<path d="M2866 1299 c-37 -10 -105 -23 -150 -29 -44 -7 -82 -13 -84 -14 -1 -2
-18 -46 -37 -99 -21 -60 -30 -99 -24 -103 16 -9 162 5 274 27 55 11 101 22
103 24 2 1 -4 20 -12 40 -18 42 -21 111 -6 149 5 14 8 26 7 25 -1 -1 -33 -9
-71 -20z"/>
<path d="M4012 4262 c-8 -6 -10 -19 -6 -41 5 -25 11 -31 28 -29 17 2 21 10 21
38 0 36 -17 48 -43 32z"/>
<path d="M4580 3241 c-5 -11 -10 -29 -10 -41 0 -19 5 -21 53 -18 49 3 52 4 49
28 -5 36 -20 50 -53 50 -18 0 -32 -7 -39 -19z"/>
<path d="M4612 3132 c-16 -11 -5 -92 13 -92 7 0 15 18 19 41 9 54 -1 70 -32
51z"/>
<path d="M486 2678 c-9 -12 -16 -33 -16 -45 0 -21 4 -23 60 -23 33 0 60 4 60
9 0 19 -21 66 -33 73 -23 15 -56 8 -71 -14z"/>
<path d="M506 2542 c-3 -6 -3 -31 0 -56 5 -35 11 -46 22 -44 8 2 17 14 18 28
2 14 4 36 6 50 2 19 -2 26 -19 28 -11 2 -24 -1 -27 -6z"/>
<path d="M4520 2400 c-11 -11 -20 -31 -20 -45 0 -24 3 -25 55 -25 52 0 55 1
55 25 0 28 -32 65 -55 65 -8 0 -24 -9 -35 -20z"/>
<path d="M4530 2255 c-10 -12 -10 -21 -1 -41 6 -14 11 -36 11 -49 0 -32 35
-27 36 6 1 13 5 32 9 43 16 38 -29 72 -55 41z"/>
<path d="M2532 861 c-8 -5 -12 -23 -10 -47 3 -36 5 -39 33 -39 28 0 30 3 33
39 3 37 -8 56 -33 56 -5 0 -16 -4 -23 -9z"/>
</g>
</svg>
